<?xml version="1.0" encoding="UTF-8" standalone="no"?>
<svg
   width="24"
   height="24"
   version="1.1"
   id="svg1"
   sodipodi:docname="github-white.svg"
   inkscape:version="1.4.2 (ebf0e940d0, 2025-05-08)"
   xmlns:inkscape="http://www.inkscape.org/namespaces/inkscape"
   xmlns:sodipodi="http://sodipodi.sourceforge.net/DTD/sodipodi-0.dtd"
   xmlns="http://www.w3.org/2000/svg"
   xmlns:svg="http://www.w3.org/2000/svg">
  <defs
     id="defs1" />
  <sodipodi:namedview
     id="namedview1"
     pagecolor="#ffffff"
     bordercolor="#000000"
     borderopacity="0.25"
     inkscape:showpageshadow="2"
     inkscape:pageopacity="0.0"
     inkscape:pagecheckerboard="0"
     inkscape:deskcolor="#d1d1d1"
     inkscape:zoom="8.7946406"
     inkscape:cx="32.4061"
     inkscape:cy="12.450765"
     inkscape:window-width="1536"
     inkscape:window-height="806"
     inkscape:window-x="0"
     inkscape:window-y="0"
     inkscape:window-maximized="1"
     inkscape:current-layer="svg1" />
  <path
     fill-rule="evenodd"
     clip-rule="evenodd"
     d="M 12.008272,2.17 C 6.4739562,2.17 2,6.6769388 2,12.252637 c 0,4.456952 2.866618,8.22967 6.8433768,9.564953 0.4971974,0.100375 0.6793186,-0.216948 0.6793186,-0.483882 0,-0.233746 -0.016389,-1.034956 -0.016389,-1.869765 -2.7840591,0.601063 -3.3638153,-1.201918 -3.3638153,-1.201918 -0.447416,-1.168526 -1.1103458,-1.468852 -1.1103458,-1.468852 -0.9112211,-0.617656 0.066375,-0.617656 0.066375,-0.617656 1.0107835,0.06679 1.5411683,1.034957 1.5411683,1.034957 0.8946273,1.535637 2.3362331,1.101742 2.9161942,0.834604 0.082764,-0.651049 0.3480586,-1.101743 0.6297422,-1.352083 -2.2204867,-0.233746 -4.5567199,-1.101741 -4.5567199,-4.974636 0,-1.101741 0.39743,-2.0031289 1.0271724,-2.7041627 -0.099357,-0.25034 -0.4474162,-1.2855019 0.099562,-2.6709759 0,0 0.8450511,-0.2671384 2.7504619,1.0349571 A 9.6223144,9.6223144 0 0 1 12.008271,7.0442544 c 0.845051,0 1.706491,0.1169749 2.501966,0.3339231 1.905615,-1.3020955 2.750666,-1.0349571 2.750666,-1.0349571 0.546979,1.385474 0.198715,2.4206359 0.09936,2.6709759 0.646336,0.7010338 1.027378,1.6024217 1.027378,2.7041637 0,3.872894 -2.336234,4.72409 -4.573314,4.974635 0.364653,0.317125 0.679319,0.917983 0.679319,1.869561 0,1.352081 -0.01639,2.43723 -0.01639,2.770948 0,0.267138 0.182326,0.584468 0.679318,0.484291 3.976759,-1.335693 6.843377,-5.108206 6.843377,-9.565158 C 22.016339,6.6769388 17.525994,2.17 12.008272,2.17 Z"
     fill="#24292f"
     id="path1"
     style="fill:#ffffff;fill-opacity:1;stroke-width:0.204861" />
</svg>
