<?xml version="1.0" encoding="UTF-8" standalone="no"?>
<svg
   width="16"
   height="16"
   version="1.1"
   id="svg1"
   sodipodi:docname="github.svg"
   inkscape:version="1.4.2 (ebf0e940d0, 2025-05-08)"
   xmlns:inkscape="http://www.inkscape.org/namespaces/inkscape"
   xmlns:sodipodi="http://sodipodi.sourceforge.net/DTD/sodipodi-0.dtd"
   xmlns="http://www.w3.org/2000/svg"
   xmlns:svg="http://www.w3.org/2000/svg">
  <defs
     id="defs1" />
  <sodipodi:namedview
     id="namedview1"
     pagecolor="#ffffff"
     bordercolor="#000000"
     borderopacity="0.25"
     inkscape:showpageshadow="2"
     inkscape:pageopacity="0.0"
     inkscape:pagecheckerboard="0"
     inkscape:deskcolor="#d1d1d1"
     inkscape:zoom="24.875"
     inkscape:cx="7.4371859"
     inkscape:cy="9.9095477"
     inkscape:window-width="1536"
     inkscape:window-height="806"
     inkscape:window-x="0"
     inkscape:window-y="0"
     inkscape:window-maximized="1"
     inkscape:current-layer="svg1" />
  <path
     fill-rule="evenodd"
     clip-rule="evenodd"
     d="M 8.0066196,0.134 C 3.5791658,0.134 0,3.7395519 0,8.2001112 c 0,3.5655628 2.2932949,6.5837378 5.4747027,7.6519648 0.397758,0.0803 0.543455,-0.173559 0.543455,-0.387106 0,-0.186997 -0.013111,-0.827965 -0.013111,-1.495812 C 3.7777989,14.450008 3.3139938,13.007623 3.3139938,13.007623 2.9560609,12.072802 2.425717,11.832541 2.425717,11.832541 c -0.7289771,-0.494125 0.0531,-0.494125 0.0531,-0.494125 0.808627,0.05343 1.2329349,0.827966 1.2329349,0.827966 0.715702,1.22851 1.8689869,0.881394 2.3329559,0.667683 0.066211,-0.520839 0.278447,-0.881394 0.5037939,-1.081666 C 4.7721119,11.565402 2.9031249,10.871006 2.9031249,7.7726894 2.9031249,6.8912959 3.221069,6.1701855 3.724863,5.6093583 3.645377,5.4090863 3.36693,4.5809566 3.804513,3.4725771 c 0,0 0.676041,-0.2137108 2.20037,0.8279659 A 7.6978533,7.6978533 0 0 1 8.0066196,4.0334044 c 0.676041,0 1.3651931,0.09358 2.0015734,0.2671386 1.524492,-1.0416767 2.200533,-0.8279659 2.200533,-0.8279659 0.437583,1.1083795 0.158972,1.9365092 0.07949,2.1367812 0.517069,0.5608272 0.821902,1.2819376 0.821902,2.1633311 0,3.0983166 -1.868987,3.7792736 -3.6586514,3.9797096 0.2917219,0.2537 0.543455,0.734386 0.543455,1.495649 0,1.081665 -0.013111,1.949784 -0.013111,2.216759 0,0.21371 0.1458604,0.467574 0.5434544,0.387433 3.181408,-1.068555 5.474703,-4.086566 5.474703,-7.6521288 C 16.013075,3.7395519 12.420798,0.134 8.0066196,0.134 Z"
     fill="#24292f"
     id="path1"
     style="fill:#000000;fill-opacity:1;stroke-width:0.163889" />
</svg>
