<?xml version="1.0" encoding="UTF-8" standalone="no"?>
<svg
   viewBox="0 0 16 16"
   width="16"
   height="16"
   version="1.1"
   id="svg4"
   sodipodi:docname="linkedin.svg"
   inkscape:version="1.4.2 (ebf0e940d0, 2025-05-08)"
   xmlns:inkscape="http://www.inkscape.org/namespaces/inkscape"
   xmlns:sodipodi="http://sodipodi.sourceforge.net/DTD/sodipodi-0.dtd"
   xmlns="http://www.w3.org/2000/svg"
   xmlns:svg="http://www.w3.org/2000/svg">
  <defs
     id="defs4" />
  <sodipodi:namedview
     id="namedview4"
     pagecolor="#ffffff"
     bordercolor="#000000"
     borderopacity="0.25"
     inkscape:showpageshadow="2"
     inkscape:pageopacity="0.0"
     inkscape:pagecheckerboard="0"
     inkscape:deskcolor="#d1d1d1"
     inkscape:zoom="12.4375"
     inkscape:cx="17.929648"
     inkscape:cy="17.969849"
     inkscape:window-width="1536"
     inkscape:window-height="806"
     inkscape:window-x="0"
     inkscape:window-y="0"
     inkscape:window-maximized="1"
     inkscape:current-layer="svg4" />
  <path
     fill="#0078d4"
     d="M 16,13.777778 C 16,15.005333 15.005333,16 13.777778,16 H 2.2222222 C 0.99511111,16 0,15.005333 0,13.777778 V 2.2222222 C 0,0.99466667 0.99511111,0 2.2222222,0 H 13.777778 C 15.005333,0 16,0.99466667 16,2.2222222 Z"
     id="path1"
     style="stroke-width:0.444444" />
  <path
     fill="#ffffff"
     d="M 2.6666667,5.7777778 H 4.8888889 V 13.333333 H 2.6666667 Z M 3.7711111,4.8888889 h -0.012444 c -0.6631111,0 -1.092,-0.4942222 -1.092,-1.1115556 0,-0.6306666 0.4422222,-1.1106666 1.1173333,-1.1106666 0.676,0 1.0924444,0.48 1.1048889,1.1106666 0,0.6168889 -0.4288889,1.1115556 -1.1177782,1.1115556 z M 13.333333,13.333333 H 11.111111 V 9.2893333 c 0,-0.9768889 -0.544444,-1.6435555 -1.4186666,-1.6435555 -0.6671111,0 -1.028,0.4497778 -1.2031111,0.8844444 -0.064,0.1555556 -0.044889,0.5857778 -0.044889,0.8031111 V 13.333333 H 6.2222222 V 5.7777778 h 2.2222222 v 1.1626666 c 0.3204445,-0.496 0.8222223,-1.1626666 2.1057776,-1.1626666 1.590222,0 2.782667,1 2.782667,3.2328889 z"
     id="path4"
     style="stroke-width:0.444444" />
</svg>
