<?xml version="1.0" encoding="UTF-8" standalone="no"?>
<svg
   viewBox="0 0 24 24"
   width="24"
   height="24"
   version="1.1"
   id="svg4"
   sodipodi:docname="linkedin.svg"
   inkscape:version="1.4.2 (ebf0e940d0, 2025-05-08)"
   xmlns:inkscape="http://www.inkscape.org/namespaces/inkscape"
   xmlns:sodipodi="http://sodipodi.sourceforge.net/DTD/sodipodi-0.dtd"
   xmlns="http://www.w3.org/2000/svg"
   xmlns:svg="http://www.w3.org/2000/svg">
  <defs
     id="defs4" />
  <sodipodi:namedview
     id="namedview4"
     pagecolor="#ffffff"
     bordercolor="#000000"
     borderopacity="0.25"
     inkscape:showpageshadow="2"
     inkscape:pageopacity="0.0"
     inkscape:pagecheckerboard="0"
     inkscape:deskcolor="#d1d1d1"
     inkscape:zoom="12.4375"
     inkscape:cx="17.929648"
     inkscape:cy="17.969849"
     inkscape:window-width="1536"
     inkscape:window-height="806"
     inkscape:window-x="0"
     inkscape:window-y="0"
     inkscape:window-maximized="1"
     inkscape:current-layer="svg4" />
  <path
     fill="#0078d4"
     d="M 22,19.222222 C 22,20.756666 20.756666,22 19.222222,22 H 4.7777778 C 3.2438889,22 2,20.756666 2,19.222222 V 4.7777778 C 2,3.2433333 3.2438889,2 4.7777778,2 H 19.222222 C 20.756666,2 22,3.2433333 22,4.7777778 Z"
     id="path1"
     style="stroke-width:0.555555" />
  <path
     fill="#ffffff"
     d="M 5.3333334,9.2222222 H 8.1111111 V 18.666666 H 5.3333334 Z M 6.7138889,8.1111111 h -0.015555 c -0.8288889,0 -1.365,-0.6177777 -1.365,-1.3894445 0,-0.7883332 0.5527777,-1.3883332 1.3966666,-1.3883332 0.845,0 1.3655555,0.6 1.3811111,1.3883332 0,0.7711112 -0.5361111,1.3894445 -1.3972227,1.3894445 z M 18.666666,18.666666 h -2.777777 v -5.054999 c 0,-1.221112 -0.680555,-2.054445 -1.773334,-2.054445 -0.833888,0 -1.285,0.562222 -1.503888,1.105556 -0.08,0.194444 -0.05611,0.732222 -0.05611,1.003889 v 4.999999 H 9.7777777 V 9.2222222 h 2.7777783 v 1.4533338 c 0.400555,-0.62 1.027777,-1.4533337 2.632221,-1.4533337 1.987778,0 3.478334,1.2499997 3.478334,4.0411107 z"
     id="path4"
     style="stroke-width:0.555555" />
</svg>
