<?xml version="1.0" encoding="UTF-8" standalone="no"?>
<svg
   height="16"
   viewBox="0 -960 640 640"
   width="16"
   fill="#e3e3e3"
   version="1.1"
   id="svg1"
   sodipodi:docname="phone.svg"
   inkscape:version="1.4.2 (ebf0e940d0, 2025-05-08)"
   xmlns:inkscape="http://www.inkscape.org/namespaces/inkscape"
   xmlns:sodipodi="http://sodipodi.sourceforge.net/DTD/sodipodi-0.dtd"
   xmlns="http://www.w3.org/2000/svg"
   xmlns:svg="http://www.w3.org/2000/svg">
  <defs
     id="defs1" />
  <sodipodi:namedview
     id="namedview1"
     pagecolor="#ffffff"
     bordercolor="#000000"
     borderopacity="0.25"
     inkscape:showpageshadow="2"
     inkscape:pageopacity="0.0"
     inkscape:pagecheckerboard="0"
     inkscape:deskcolor="#d1d1d1"
     inkscape:zoom="24.875"
     inkscape:cx="8.9648241"
     inkscape:cy="8.9849246"
     inkscape:window-width="1536"
     inkscape:window-height="806"
     inkscape:window-x="0"
     inkscape:window-y="0"
     inkscape:window-maximized="1"
     inkscape:current-layer="svg1" />
  <path
     d="m 602.66667,-320 c -76.44445,0 -150.96296,-17.03704 -223.55556,-51.11111 -72.59259,-34.07407 -136.88889,-79.11111 -192.88889,-135.11111 -56,-56 -101.037038,-120.2963 -135.111109,-192.88889 C 17.03704,-771.70371 0,-846.22222 0,-922.66667 c 0,-10.66666 3.5555556,-19.55555 10.666667,-26.66666 7.111111,-7.11111 16,-10.66667 26.666666,-10.66667 H 181.33333 c 8.2963,0 15.70371,2.66667 22.22223,8 6.51851,5.33333 10.37037,12.14815 11.55555,20.44444 l 23.11111,124.44445 c 1.18518,8.29629 1.03704,15.85185 -0.44444,22.66667 -1.48149,6.81481 -4.88889,12.88888 -10.22222,18.22222 l -86.22223,87.11111 c 24.88889,42.66667 56.14815,82.66667 93.77778,120 37.62963,37.33333 78.96296,69.62963 124,96.88889 l 83.55556,-83.55556 c 5.33333,-5.33333 12.29629,-9.33333 20.88889,-12 8.59259,-2.66666 17.03704,-3.4074 25.33333,-2.22222 l 122.66667,24.88889 c 8.29629,1.77778 15.11111,5.77778 20.44444,12 5.33333,6.22222 8,13.48148 8,21.77778 v 144 c 0,10.66666 -3.55556,19.55555 -10.66667,26.66666 -7.11111,7.11111 -16,10.66667 -26.66666,10.66667 z m -495.11111,-426.66667 58.66666,-58.66666 -15.11111,-83.55556 H 72 c 2.96296,24.29629 7.111111,48.29629 12.444444,72 5.333334,23.70371 13.03704,47.11111 23.111116,70.22222 z m 318.22222,318.22223 c 23.11111,10.07407 46.66666,18.07407 70.66666,24 24,5.92592 48.14816,9.77777 72.44445,11.55555 v -78.22222 L 485.33333,-488 Z"
     id="path1"
     sodipodi:nodetypes="sssssssssccsccscssccsssssccccsccscccc"
     style="fill:#000000;fill-opacity:1;stroke-width:0.888889" />
</svg>
